<svg width="14" height="12" viewBox="0 0 14 12" fill="inherit" xmlns="http://www.w3.org/2000/svg">
<path d="M7.16283 0.666687C7.51883 0.668687 8.4095 0.677354 9.35616 0.715354L9.69216 0.73002C10.6448 0.774687 11.5968 0.85202 12.0695 0.983354C12.6995 1.16069 13.1942 1.67669 13.3615 2.33135C13.6282 3.37135 13.6615 5.39935 13.6655 5.89069L13.6662 5.99202V6.10802C13.6615 6.59935 13.6282 8.62802 13.3615 9.66735C13.1922 10.324 12.6968 10.8407 12.0695 11.0154C11.5968 11.1467 10.6448 11.224 9.69216 11.2687L9.35616 11.284C8.4095 11.3214 7.51883 11.3307 7.16283 11.332L7.00616 11.3327H6.83616C6.08283 11.328 2.93216 11.294 1.9295 11.0154C1.30016 10.838 0.80483 10.322 0.637496 9.66735C0.370829 8.62735 0.337496 6.59935 0.333496 6.10802V5.89069C0.337496 5.39935 0.370829 3.37069 0.637496 2.33135C0.80683 1.67469 1.30216 1.15802 1.93016 0.98402C2.93216 0.704687 6.0835 0.670687 6.83683 0.666687H7.16283ZM5.66616 3.66669V8.33335L9.66616 6.00002L5.66616 3.66669Z" fill="inherit"/>
</svg>
