<svg width="28" height="28" viewBox="0 0 28 28" fill="none" xmlns="http://www.w3.org/2000/svg">
<path fill-rule="evenodd" clip-rule="evenodd" d="M2.6185 25.38C4.57317 27.3333 7.7145 27.3333 13.9998 27.3333C20.2852 27.3333 23.4278 27.3333 25.3798 25.38C27.3332 23.4293 27.3332 20.2853 27.3332 14C27.3332 7.71463 27.3332 4.57196 25.3798 2.61863C23.4292 0.666626 20.2852 0.666626 13.9998 0.666626C7.7145 0.666626 4.57184 0.666626 2.6185 2.61863C0.666504 4.57329 0.666504 7.71463 0.666504 14C0.666504 20.2853 0.666504 23.428 2.6185 25.38ZM10.6665 9.66663C9.80945 9.66663 8.97165 9.92077 8.25903 10.3969C7.54642 10.8731 6.99101 11.5499 6.66303 12.3417C6.33505 13.1335 6.24923 14.0048 6.41643 14.8454C6.58364 15.6859 6.99635 16.4581 7.60237 17.0641C8.2084 17.6701 8.98053 18.0828 9.82111 18.25C10.6617 18.4172 11.533 18.3314 12.3248 18.0034C13.1166 17.6755 13.7934 17.12 14.2695 16.4074C14.7457 15.6948 14.9998 14.857 14.9998 14C14.9998 13.7347 15.1052 13.4804 15.2927 13.2929C15.4803 13.1053 15.7346 13 15.9998 13C16.2651 13 16.5194 13.1053 16.7069 13.2929C16.8945 13.4804 16.9998 13.7347 16.9998 14C16.9998 15.2526 16.6284 16.4771 15.9325 17.5186C15.2366 18.5601 14.2474 19.3718 13.0902 19.8512C11.9329 20.3305 10.6595 20.456 9.43093 20.2116C8.20239 19.9672 7.07389 19.364 6.18816 18.4783C5.30243 17.5926 4.69924 16.4641 4.45486 15.2355C4.21049 14.007 4.33591 12.7336 4.81527 11.5763C5.29462 10.419 6.10638 9.4299 7.14789 8.73398C8.1894 8.03807 9.41389 7.66663 10.6665 7.66663C10.9317 7.66663 11.1861 7.77198 11.3736 7.95952C11.5611 8.14706 11.6665 8.40141 11.6665 8.66663C11.6665 8.93184 11.5611 9.1862 11.3736 9.37373C11.1861 9.56127 10.9317 9.66663 10.6665 9.66663ZM21.6665 14C21.6665 15.1492 21.21 16.2514 20.3973 17.0641C19.5846 17.8767 18.4824 18.3333 17.3332 18.3333C17.068 18.3333 16.8136 18.4386 16.6261 18.6262C16.4385 18.8137 16.3332 19.0681 16.3332 19.3333C16.3332 19.5985 16.4385 19.8529 16.6261 20.0404C16.8136 20.2279 17.068 20.3333 17.3332 20.3333C18.5858 20.3333 19.8103 19.9618 20.8518 19.2659C21.8933 18.57 22.7051 17.5809 23.1844 16.4236C23.6638 15.2664 23.7892 13.9929 23.5448 12.7644C23.3004 11.5358 22.6972 10.4073 21.8115 9.52162C20.9258 8.63588 19.7973 8.03269 18.5687 7.78832C17.3402 7.54395 16.0668 7.66937 14.9095 8.14872C13.7522 8.62808 12.7631 9.43984 12.0672 10.4813C11.3713 11.5229 10.9998 12.7473 10.9998 14C10.9998 14.2652 11.1052 14.5195 11.2927 14.7071C11.4803 14.8946 11.7346 15 11.9998 15C12.2651 15 12.5194 14.8946 12.7069 14.7071C12.8945 14.5195 12.9998 14.2652 12.9998 14C12.9998 12.8507 13.4564 11.7485 14.269 10.9358C15.0817 10.1232 16.1839 9.66663 17.3332 9.66663C18.4824 9.66663 19.5846 10.1232 20.3973 10.9358C21.21 11.7485 21.6665 12.8507 21.6665 14Z" fill="#633CFF"/>
</svg>
