<svg width="13" height="15" viewBox="0 0 13 15" fill="inherit" xmlns="http://www.w3.org/2000/svg">
<path d="M8.98174 1.28799C7.67787 0.985013 6.32189 0.985013 5.01801 1.28799C4.26495 0.826124 3.69001 0.613858 3.27188 0.524258C3.09342 0.48398 2.91081 0.465004 2.72788 0.467724C2.64464 0.46998 2.56179 0.479979 2.48041 0.497591L2.46974 0.499724L2.46548 0.501857H2.46228L2.60841 1.01492L2.46228 0.502924C2.38734 0.524101 2.31795 0.561431 2.25898 0.612292C2.20001 0.663152 2.1529 0.726309 2.12094 0.797324C1.80625 1.50208 1.7463 2.2943 1.95134 3.03839C1.42029 3.68197 1.13089 4.49093 1.13321 5.32532C1.13321 6.98186 1.62174 8.09546 2.45481 8.81119C3.03828 9.31252 3.74654 9.57919 4.45694 9.73172C4.34515 10.0601 4.30301 10.4081 4.33321 10.7536V11.3915C3.89908 11.4821 3.59828 11.4533 3.38388 11.3829C3.11614 11.2944 2.91028 11.1163 2.71294 10.8603C2.60979 10.7223 2.51367 10.5791 2.42494 10.4315L2.36414 10.3323C2.28737 10.2046 2.20771 10.0787 2.12521 9.95466C1.92254 9.65493 1.62174 9.27946 1.13534 9.15146L0.619078 9.01599L0.348145 10.0485L0.864411 10.184C0.949745 10.2053 1.06068 10.2853 1.24308 10.5531C1.31328 10.6587 1.38086 10.7662 1.44574 10.8752L1.51828 10.9925C1.61854 11.1547 1.73374 11.3339 1.86708 11.5088C2.13694 11.8608 2.50494 12.216 3.05108 12.3963C3.42441 12.52 3.84894 12.5499 4.33321 12.4752V14.4667C4.33321 14.6081 4.3894 14.7438 4.48942 14.8438C4.58944 14.9438 4.7251 15 4.86654 15H9.13321C9.27466 15 9.41032 14.9438 9.51034 14.8438C9.61036 14.7438 9.66654 14.6081 9.66654 14.4667V10.6661C9.66654 10.3301 9.65161 10.0219 9.55668 9.73493C10.2639 9.58559 10.9668 9.31892 11.5471 8.81759C12.3791 8.09653 12.8665 6.97226 12.8665 5.30612V5.30506C12.8639 4.47749 12.5744 3.67646 12.0473 3.03839C12.2521 2.29463 12.1922 1.50283 11.8777 0.798391C11.846 0.727291 11.7991 0.663997 11.7404 0.612953C11.6816 0.56191 11.6123 0.524354 11.5375 0.502924L11.3913 1.01492C11.5375 0.502924 11.5364 0.502924 11.5353 0.502924L11.5332 0.501857L11.5289 0.499724L11.5193 0.497591C11.493 0.490741 11.4663 0.485399 11.4393 0.481591C11.3835 0.473438 11.3272 0.468807 11.2708 0.467724C11.0879 0.465024 10.9053 0.484 10.7268 0.524258C10.3097 0.613858 9.73481 0.826124 8.98174 1.28799Z" fill="inherit"/>
</svg>
